PathFileType	4	(X/Y/Z)	distal_points_all_segments.trc
DataRate	CameraRate	NumFrames	NumMarkers	Units	OrigDataRate	OrigDataStartFrame	OrigNumFrames
60.0	60.0	26	18	m	60.0	218	290
Frame#	Time	worldbody			l_thigh			l_shank			l_foot			l_toes			r_thigh			r_shank			r_foot			r_toes			head			torso			l_uarm			l_larm			l_hand			r_uarm			r_larm			r_hand			pelvis_shifted		
		X1	Y1	Z1	X2	Y2	Z2	X3	Y3	Z3	X4	Y4	Z4	X5	Y5	Z5	X6	Y6	Z6	X7	Y7	Z7	X8	Y8	Z8	X9	Y9	Z9	X10	Y10	Z10	X11	Y11	Z11	X12	Y12	Z12	X13	Y13	Z13	X14	Y14	Z14	X15	Y15	Z15	X16	Y16	Z16	X17	Y17	Z17	X18	Y18	Z18
218	3.61667	0.000	0.000	0.000	0.148	1.006	0.376	0.221	0.756	0.088	0.223	0.744	-0.074	0.173	0.891	0.011	0.445	1.042	0.367	0.482	0.768	0.099	0.485	0.740	-0.060	0.519	0.901	0.016	0.306	0.966	1.289	0.301	0.950	1.138	-0.036	0.793	0.997	0.100	0.791	0.800	0.289	0.836	0.659	0.676	0.881	0.969	0.535	0.838	0.779	0.314	0.886	0.695	0.319	0.764	0.749
219	3.63333	0.000	0.000	0.000	0.147	1.008	0.373	0.221	0.756	0.088	0.223	0.744	-0.074	0.174	0.890	0.011	0.447	1.047	0.366	0.482	0.769	0.102	0.483	0.738	-0.056	0.519	0.901	0.016	0.303	0.970	1.276	0.301	0.953	1.126	-0.037	0.794	0.983	0.102	0.790	0.788	0.296	0.838	0.654	0.676	0.888	0.959	0.536	0.841	0.769	0.315	0.892	0.686	0.322	0.761	0.742
220	3.65000	0.000	0.000	0.000	0.146	1.010	0.372	0.221	0.756	0.089	0.224	0.745	-0.073	0.174	0.891	0.012	0.450	1.051	0.366	0.482	0.770	0.104	0.483	0.736	-0.054	0.519	0.900	0.016	0.300	0.974	1.267	0.300	0.955	1.117	-0.037	0.795	0.973	0.104	0.788	0.779	0.301	0.845	0.654	0.676	0.893	0.950	0.535	0.846	0.761	0.314	0.897	0.682	0.324	0.759	0.736
221	3.66667	0.000	0.000	0.000	0.145	1.012	0.373	0.219	0.757	0.091	0.225	0.745	-0.071	0.174	0.892	0.013	0.452	1.052	0.365	0.482	0.770	0.105	0.483	0.735	-0.052	0.520	0.899	0.016	0.299	0.976	1.261	0.300	0.958	1.113	-0.036	0.795	0.968	0.107	0.786	0.775	0.305	0.849	0.655	0.677	0.898	0.944	0.535	0.850	0.756	0.311	0.902	0.682	0.325	0.758	0.733
222	3.68333	0.000	0.000	0.000	0.143	1.015	0.374	0.217	0.758	0.094	0.227	0.745	-0.068	0.174	0.892	0.013	0.453	1.053	0.364	0.482	0.770	0.104	0.484	0.733	-0.053	0.520	0.898	0.014	0.297	0.977	1.259	0.300	0.960	1.113	-0.034	0.794	0.965	0.109	0.785	0.772	0.308	0.851	0.656	0.678	0.902	0.942	0.535	0.854	0.754	0.310	0.904	0.684	0.326	0.758	0.731
223	3.70000	0.000	0.000	0.000	0.142	1.015	0.377	0.215	0.759	0.095	0.229	0.744	-0.066	0.173	0.892	0.012	0.455	1.053	0.363	0.482	0.769	0.103	0.485	0.732	-0.053	0.520	0.898	0.013	0.297	0.977	1.261	0.300	0.961	1.115	-0.032	0.792	0.965	0.111	0.786	0.773	0.310	0.858	0.660	0.679	0.904	0.944	0.537	0.856	0.755	0.311	0.901	0.684	0.327	0.759	0.733
224	3.71667	0.000	0.000	0.000	0.141	1.014	0.378	0.215	0.759	0.096	0.231	0.744	-0.065	0.174	0.892	0.012	0.456	1.054	0.363	0.482	0.770	0.103	0.486	0.733	-0.053	0.520	0.898	0.013	0.296	0.976	1.266	0.300	0.960	1.119	-0.032	0.790	0.969	0.111	0.787	0.776	0.312	0.864	0.669	0.679	0.904	0.949	0.539	0.855	0.759	0.314	0.899	0.686	0.329	0.761	0.736
225	3.73333	0.000	0.000	0.000	0.142	1.011	0.379	0.216	0.758	0.095	0.231	0.745	-0.066	0.174	0.892	0.014	0.456	1.054	0.365	0.482	0.772	0.104	0.487	0.733	-0.052	0.520	0.900	0.013	0.296	0.973	1.273	0.300	0.959	1.125	-0.031	0.787	0.976	0.111	0.789	0.783	0.312	0.867	0.676	0.680	0.904	0.956	0.542	0.854	0.765	0.318	0.902	0.689	0.332	0.764	0.740
226	3.75000	0.000	0.000	0.000	0.144	1.009	0.380	0.217	0.757	0.095	0.230	0.746	-0.067	0.174	0.891	0.015	0.456	1.054	0.368	0.483	0.773	0.105	0.487	0.734	-0.051	0.520	0.901	0.013	0.296	0.971	1.283	0.301	0.957	1.132	-0.031	0.785	0.984	0.112	0.790	0.791	0.311	0.866	0.680	0.680	0.904	0.966	0.544	0.855	0.773	0.323	0.909	0.696	0.333	0.767	0.746
227	3.76667	0.000	0.000	0.000	0.144	1.006	0.382	0.217	0.757	0.095	0.229	0.746	-0.067	0.173	0.891	0.015	0.456	1.052	0.371	0.484	0.774	0.106	0.487	0.735	-0.050	0.520	0.901	0.015	0.297	0.968	1.293	0.302	0.955	1.142	-0.031	0.782	0.993	0.113	0.790	0.801	0.307	0.866	0.682	0.682	0.904	0.976	0.546	0.855	0.783	0.326	0.914	0.705	0.335	0.770	0.753
228	3.78333	0.000	0.000	0.000	0.144	1.003	0.385	0.217	0.757	0.095	0.229	0.746	-0.067	0.174	0.892	0.015	0.458	1.048	0.375	0.484	0.773	0.107	0.486	0.736	-0.050	0.521	0.902	0.016	0.297	0.965	1.304	0.303	0.954	1.153	-0.030	0.778	1.003	0.114	0.789	0.812	0.305	0.866	0.688	0.683	0.903	0.988	0.548	0.857	0.795	0.328	0.911	0.712	0.336	0.774	0.761
229	3.80000	0.000	0.000	0.000	0.144	1.000	0.390	0.217	0.758	0.095	0.230	0.748	-0.067	0.174	0.893	0.015	0.460	1.044	0.379	0.486	0.773	0.106	0.487	0.737	-0.051	0.521	0.902	0.017	0.297	0.961	1.317	0.304	0.952	1.165	-0.028	0.775	1.014	0.116	0.788	0.822	0.305	0.867	0.697	0.685	0.902	1.001	0.549	0.859	0.807	0.329	0.903	0.720	0.338	0.777	0.770
230	3.81667	0.000	0.000	0.000	0.145	0.996	0.394	0.216	0.760	0.095	0.230	0.748	-0.066	0.173	0.894	0.015	0.463	1.039	0.382	0.487	0.772	0.105	0.487	0.738	-0.052	0.522	0.902	0.016	0.298	0.956	1.330	0.305	0.950	1.177	-0.025	0.771	1.025	0.117	0.789	0.832	0.308	0.869	0.710	0.687	0.901	1.013	0.549	0.861	0.820	0.329	0.897	0.730	0.340	0.781	0.779
231	3.83333	0.000	0.000	0.000	0.146	0.992	0.399	0.216	0.760	0.096	0.228	0.747	-0.066	0.172	0.894	0.014	0.466	1.034	0.385	0.488	0.772	0.104	0.487	0.739	-0.054	0.522	0.903	0.016	0.298	0.951	1.343	0.305	0.949	1.190	-0.022	0.769	1.036	0.119	0.792	0.843	0.309	0.871	0.720	0.688	0.901	1.027	0.550	0.863	0.833	0.330	0.895	0.741	0.341	0.784	0.788
232	3.85000	0.000	0.000	0.000	0.147	0.985	0.403	0.217	0.759	0.095	0.228	0.746	-0.066	0.172	0.893	0.014	0.470	1.028	0.389	0.489	0.771	0.103	0.487	0.739	-0.055	0.522	0.902	0.015	0.299	0.946	1.358	0.306	0.947	1.204	-0.019	0.767	1.047	0.121	0.794	0.854	0.308	0.872	0.726	0.690	0.901	1.041	0.552	0.867	0.847	0.334	0.894	0.750	0.343	0.787	0.798
233	3.86667	0.000	0.000	0.000	0.149	0.977	0.407	0.217	0.758	0.095	0.229	0.746	-0.067	0.172	0.892	0.014	0.474	1.021	0.393	0.490	0.769	0.102	0.487	0.738	-0.056	0.523	0.901	0.015	0.299	0.942	1.373	0.308	0.945	1.217	-0.016	0.765	1.058	0.123	0.795	0.865	0.308	0.874	0.734	0.692	0.901	1.057	0.555	0.871	0.861	0.338	0.891	0.758	0.345	0.790	0.808
234	3.88333	0.000	0.000	0.000	0.151	0.969	0.412	0.217	0.757	0.094	0.229	0.745	-0.067	0.173	0.891	0.014	0.478	1.015	0.398	0.491	0.769	0.103	0.487	0.737	-0.055	0.523	0.900	0.015	0.301	0.938	1.388	0.310	0.942	1.230	-0.013	0.764	1.070	0.124	0.796	0.875	0.308	0.881	0.746	0.694	0.899	1.072	0.557	0.874	0.875	0.342	0.890	0.768	0.346	0.793	0.819
235	3.90000	0.000	0.000	0.000	0.154	0.961	0.417	0.217	0.756	0.094	0.228	0.745	-0.067	0.173	0.891	0.015	0.481	1.008	0.404	0.493	0.768	0.103	0.486	0.737	-0.055	0.523	0.900	0.016	0.304	0.934	1.402	0.312	0.940	1.244	-0.010	0.764	1.081	0.125	0.798	0.886	0.308	0.891	0.761	0.694	0.898	1.085	0.558	0.875	0.888	0.345	0.893	0.777	0.347	0.796	0.830
236	3.91667	0.000	0.000	0.000	0.158	0.954	0.423	0.217	0.756	0.095	0.228	0.746	-0.067	0.173	0.891	0.016	0.483	1.000	0.410	0.494	0.768	0.103	0.485	0.738	-0.055	0.523	0.901	0.016	0.307	0.929	1.416	0.314	0.938	1.257	-0.008	0.764	1.093	0.127	0.800	0.897	0.308	0.899	0.775	0.695	0.897	1.097	0.557	0.876	0.901	0.347	0.902	0.787	0.349	0.798	0.841
237	3.93333	0.000	0.000	0.000	0.161	0.947	0.428	0.217	0.756	0.095	0.229	0.746	-0.066	0.173	0.891	0.017	0.486	0.990	0.416	0.495	0.767	0.102	0.485	0.740	-0.057	0.522	0.902	0.016	0.309	0.924	1.431	0.316	0.935	1.270	-0.005	0.763	1.105	0.128	0.803	0.909	0.309	0.901	0.785	0.696	0.898	1.110	0.558	0.878	0.914	0.349	0.914	0.801	0.350	0.801	0.851
238	3.95000	0.000	0.000	0.000	0.165	0.939	0.434	0.218	0.756	0.096	0.229	0.745	-0.065	0.174	0.891	0.016	0.490	0.980	0.421	0.495	0.767	0.101	0.486	0.740	-0.058	0.522	0.902	0.017	0.309	0.919	1.446	0.317	0.932	1.284	-0.002	0.763	1.117	0.129	0.807	0.921	0.311	0.899	0.794	0.698	0.899	1.124	0.561	0.882	0.927	0.351	0.915	0.814	0.353	0.804	0.862
239	3.96667	0.000	0.000	0.000	0.169	0.931	0.440	0.219	0.757	0.097	0.228	0.744	-0.065	0.174	0.891	0.016	0.493	0.969	0.427	0.496	0.765	0.100	0.486	0.739	-0.059	0.523	0.900	0.017	0.311	0.915	1.460	0.318	0.930	1.297	-0.001	0.764	1.129	0.130	0.812	0.933	0.314	0.897	0.804	0.700	0.899	1.138	0.563	0.886	0.940	0.352	0.903	0.824	0.354	0.806	0.872
240	3.98333	0.000	0.000	0.000	0.172	0.923	0.446	0.220	0.758	0.098	0.227	0.744	-0.064	0.175	0.891	0.017	0.495	0.958	0.433	0.496	0.763	0.100	0.486	0.738	-0.059	0.524	0.899	0.017	0.313	0.911	1.473	0.320	0.927	1.310	0.001	0.766	1.141	0.130	0.816	0.945	0.315	0.897	0.816	0.700	0.900	1.149	0.563	0.889	0.952	0.352	0.895	0.837	0.355	0.808	0.883
241	4.00000	0.000	0.000	0.000	0.176	0.914	0.451	0.220	0.757	0.099	0.227	0.744	-0.063	0.175	0.891	0.019	0.496	0.947	0.439	0.496	0.762	0.101	0.486	0.738	-0.058	0.524	0.898	0.019	0.315	0.908	1.485	0.321	0.925	1.322	0.001	0.769	1.152	0.131	0.819	0.956	0.315	0.898	0.824	0.701	0.901	1.160	0.564	0.890	0.962	0.350	0.904	0.851	0.356	0.810	0.892
242	4.01667	0.000	0.000	0.000	0.180	0.906	0.456	0.219	0.757	0.100	0.227	0.744	-0.061	0.175	0.891	0.020	0.497	0.937	0.445	0.496	0.762	0.102	0.486	0.739	-0.058	0.524	0.899	0.020	0.318	0.904	1.496	0.323	0.923	1.333	0.002	0.772	1.162	0.132	0.821	0.967	0.314	0.900	0.831	0.702	0.901	1.171	0.565	0.890	0.973	0.353	0.916	0.862	0.357	0.812	0.901
243	4.03333	0.000	0.000	0.000	0.185	0.897	0.461	0.219	0.757	0.101	0.227	0.744	-0.060	0.175	0.891	0.021	0.497	0.927	0.451	0.496	0.762	0.102	0.486	0.739	-0.057	0.523	0.899	0.021	0.320	0.901	1.507	0.325	0.921	1.343	0.003	0.774	1.172	0.134	0.825	0.977	0.313	0.904	0.839	0.705	0.900	1.182	0.567	0.892	0.984	0.358	0.918	0.868	0.358	0.814	0.909
